<?xml version="1.0" standalone="no"?>
<!DOCTYPE svg PUBLIC "-//W3C//DTD SVG 20010904//EN"
 "http://www.w3.org/TR/2001/REC-SVG-20010904/DTD/svg10.dtd">
<svg version="1.0" xmlns="http://www.w3.org/2000/svg"
 width="512.000000pt" height="512.000000pt" viewBox="0 0 512.000000 512.000000"
 preserveAspectRatio="xMidYMid meet">

<g transform="translate(0.000000,512.000000) scale(0.100000,-0.100000)"
fill="#000000" stroke="none">
<path d="M2934 4768 c56 -75 87 -223 87 -423 0 -200 -31 -348 -87 -422 -29
-38 -22 -40 57 -17 195 57 329 235 329 439 0 204 -134 382 -329 439 -79 23
-86 21 -57 -16z"/>
<path d="M1193 3556 c91 -34 159 -104 191 -199 14 -42 16 -125 16 -715 0 -630
1 -669 19 -702 54 -104 200 -108 261 -8 19 32 20 52 20 709 0 767 4 731 -81
823 -77 85 -121 99 -309 103 -143 3 -152 2 -117 -11z"/>
<path d="M3248 3539 c70 -35 104 -71 141 -149 l26 -55 5 -690 c5 -644 6 -693
23 -718 62 -95 203 -87 255 13 l22 44 0 651 c0 716 0 712 -61 802 -67 97 -161
133 -347 133 l-125 0 61 -31z"/>
</g>
</svg>
